<svg xmlns="http://www.w3.org/2000/svg" viewBox="0 0 900 900" role="img" aria-label="Museum Island placeholder">
  <defs>
    <linearGradient id="bg" x1="0" x2="1" y1="0" y2="1">
      <stop offset="0" stop-color="#ede1cd"/>
      <stop offset=".6" stop-color="#8d806b"/>
      <stop offset="1" stop-color="#2a3944"/>
    </linearGradient>
  </defs>
  <rect width="900" height="900" fill="url(#bg)"/>
  <path d="M84 668h732v88H84z" fill="#232a2d"/>
  <path d="M148 306h604l-302-132z" fill="#232a2d"/>
  <g fill="#232a2d">
    <rect x="150" y="344" width="54" height="324"/>
    <rect x="262" y="344" width="54" height="324"/>
    <rect x="374" y="344" width="54" height="324"/>
    <rect x="486" y="344" width="54" height="324"/>
    <rect x="598" y="344" width="54" height="324"/>
    <rect x="710" y="344" width="54" height="324"/>
  </g>
  <g fill="#f8ead4" opacity=".24">
    <path d="M72 110c160 60 298 56 414-10s232-60 342 18"/>
    <path d="M96 184c160 60 298 56 414-10s232-60 342 18"/>
    <path d="M40 792c150-48 292-48 426 0s270 46 394-8"/>
  </g>
</svg>
