<svg xmlns="http://www.w3.org/2000/svg" viewBox="0 0 1200 900" role="img" aria-label="Editorial travel collage placeholder">
  <defs>
    <linearGradient id="sky" x1="0" x2="1" y1="0" y2="1">
      <stop offset="0" stop-color="#24384a"/>
      <stop offset=".48" stop-color="#c78959"/>
      <stop offset="1" stop-color="#f4dfbd"/>
    </linearGradient>
    <radialGradient id="sun" cx="72%" cy="28%" r="38%">
      <stop offset="0" stop-color="#fff4c8"/>
      <stop offset=".34" stop-color="#d59055"/>
      <stop offset="1" stop-color="#24384a" stop-opacity="0"/>
    </radialGradient>
    <filter id="grain">
      <feTurbulence type="fractalNoise" baseFrequency=".8" numOctaves="3" stitchTiles="stitch"/>
      <feColorMatrix type="saturate" values="0"/>
      <feComponentTransfer>
        <feFuncA type="table" tableValues="0 .18"/>
      </feComponentTransfer>
    </filter>
  </defs>
  <rect width="1200" height="900" fill="url(#sky)"/>
  <rect width="1200" height="900" fill="url(#sun)"/>
  <path d="M0 690c156-78 267-92 423-34s272 32 402-34 254-44 375 30v248H0z" fill="#1d2830" opacity=".72"/>
  <path d="M0 748c170-56 321-54 466 6s258 52 398-8 251-45 336 26v128H0z" fill="#efe2cd" opacity=".58"/>
  <g fill="none" stroke="#f8ead4" stroke-opacity=".36" stroke-width="2">
    <path d="M92 172c116 34 207 30 274-12s139-48 217-17"/>
    <path d="M76 225c116 34 207 30 274-12s139-48 217-17"/>
    <path d="M704 598c116 34 207 30 274-12s139-48 217-17"/>
  </g>
  <g opacity=".72">
    <rect x="84" y="82" width="214" height="136" rx="18" fill="none" stroke="#2b3d49" stroke-width="5"/>
    <rect x="890" y="118" width="200" height="126" rx="18" fill="none" stroke="#8d4d31" stroke-width="5"/>
    <circle cx="202" cy="150" r="48" fill="none" stroke="#8d4d31" stroke-width="7"/>
    <circle cx="990" cy="180" r="42" fill="none" stroke="#2b3d49" stroke-width="7"/>
  </g>
  <path d="M712 264l327-94-224 208-22-80z" fill="#fff8e8" opacity=".82"/>
  <path d="M712 264l103 114-22-80z" fill="#24384a" opacity=".28"/>
  <rect width="1200" height="900" filter="url(#grain)"/>
</svg>
