<svg xmlns="http://www.w3.org/2000/svg" viewBox="0 0 1000 750" role="img" aria-label="Berlin cover placeholder">
  <defs>
    <linearGradient id="bg" x1="0" x2="1" y1="0" y2="1">
      <stop offset="0" stop-color="#d9c6aa"/>
      <stop offset=".5" stop-color="#8b7b66"/>
      <stop offset="1" stop-color="#233646"/>
    </linearGradient>
    <filter id="grain">
      <feTurbulence type="fractalNoise" baseFrequency=".9" numOctaves="3"/>
      <feComponentTransfer>
        <feFuncA type="table" tableValues="0 .14"/>
      </feComponentTransfer>
    </filter>
  </defs>
  <rect width="1000" height="750" fill="url(#bg)"/>
  <circle cx="236" cy="226" r="76" fill="#24384a" opacity=".2"/>
  <path d="M130 508h740v68H130z" fill="#2b2823" opacity=".78"/>
  <path d="M214 492h96V314h-96zM690 492h96V314h-96z" fill="#2b2823"/>
  <path d="M342 492h316V306H342z" fill="#2b2823"/>
  <path d="M382 306c10-100 226-100 236 0z" fill="#2b2823"/>
  <path d="M458 214c6-70 78-70 84 0z" fill="#2b2823"/>
  <path d="M500 128l18 68h-36z" fill="#2b2823"/>
  <path d="M0 586c160-36 269-38 414 1s274 39 586-18v181H0z" fill="#1f3442" opacity=".78"/>
  <path d="M0 640c152-28 296-26 432 6s318 30 568-16" fill="none" stroke="#f7e6cc" stroke-opacity=".38" stroke-width="8"/>
  <rect width="1000" height="750" filter="url(#grain)"/>
</svg>
